<svg width="24" height="25" viewBox="0 0 24 25" fill="none" xmlns="http://www.w3.org/2000/svg">
<path fill-rule="evenodd" clip-rule="evenodd" d="M6.49976 16.8123C6.49976 17.6063 7.14376 18.2493 7.93676 18.2493H16.9598C17.7548 18.2493 18.3978 17.6063 18.3978 16.8123V7.78932C18.3978 6.99532 17.7548 6.35132 16.9598 6.35132H7.93676C7.14376 6.35132 6.49976 6.99532 6.49976 7.78932V16.8123Z" stroke="#51D496" stroke-linejoin="round"/>
<path d="M7.50806 18.2899C7.80706 18.4099 7.96706 22.3619 7.96706 22.3619C7.96706 23.1569 8.61006 23.7999 9.40406 23.7999H15.5531C16.3471 23.7999 16.9901 23.1569 16.9901 22.3619C16.9901 22.3619 17.1801 18.4999 17.3901 18.2899" stroke="#51D496" stroke-linejoin="round"/>
<path d="M17.3888 6.31044C17.0898 6.19044 16.9298 2.23744 16.9298 2.23744C16.9298 1.44344 16.2858 0.799438 15.4928 0.799438H9.34384C8.54984 0.799438 7.90684 1.44344 7.90684 2.23744C7.90684 2.23744 7.71684 6.10044 7.50684 6.31044" stroke="#51D496" stroke-linejoin="round"/>
<path d="M14.4851 9.92859L12.5681 13.3546H10.4121" stroke="#51D496" stroke-linecap="round" stroke-linejoin="round"/>
</svg>
