<svg width="44" height="31" viewBox="0 0 44 31" fill="none" xmlns="http://www.w3.org/2000/svg">
<g clip-path="url(#clip0)">
<path d="M2.96904 8.88215H8.90444C9.21525 8.88215 9.46723 8.68251 9.46723 8.43612C9.46723 8.18974 9.21525 7.9901 8.90444 7.9901H2.96904C2.65823 7.9901 2.40625 8.18974 2.40625 8.43612C2.40625 8.68251 2.65815 8.88215 2.96904 8.88215Z" fill="black"/>
<path d="M8.70115 11.0294H6.35649C6.04568 11.0294 5.7937 11.2291 5.7937 11.4755C5.7937 11.7218 6.04568 11.9215 6.35649 11.9215H8.70115C9.01196 11.9215 9.26394 11.7218 9.26394 11.4755C9.26394 11.2291 9.01196 11.0294 8.70115 11.0294Z" fill="black"/>
<path d="M0.615035 14.1225H6.35639C6.6672 14.1225 6.91918 13.9228 6.91918 13.6764C6.91918 13.4301 6.6672 13.2304 6.35639 13.2304H0.615035C0.304226 13.2304 0.0522461 13.4301 0.0522461 13.6764C0.0522461 13.9228 0.304226 14.1225 0.615035 14.1225Z" fill="black"/>
<path d="M9.46723 22.0297C9.46723 21.7833 9.21525 21.5837 8.90444 21.5837H2.96904C2.65823 21.5837 2.40625 21.7833 2.40625 22.0297C2.40625 22.2761 2.65823 22.4758 2.96904 22.4758H8.90444C9.21525 22.4758 9.46723 22.2761 9.46723 22.0297Z" fill="black"/>
<path d="M8.70115 18.5444H6.35649C6.04568 18.5444 5.7937 18.7441 5.7937 18.9905C5.7937 19.2368 6.04568 19.4365 6.35649 19.4365H8.70115C9.01196 19.4365 9.26394 19.2368 9.26394 18.9905C9.26394 18.7441 9.01196 18.5444 8.70115 18.5444Z" fill="black"/>
<path d="M6.91918 16.7895C6.91918 16.5431 6.6672 16.3434 6.35639 16.3434H0.615035C0.304226 16.3434 0.0522461 16.5431 0.0522461 16.7895C0.0522461 17.0359 0.304226 17.2355 0.615035 17.2355H6.35639C6.6672 17.2355 6.91918 17.0359 6.91918 16.7895Z" fill="black"/>
<path d="M24.0293 9.87053C24.3402 9.87053 24.5921 9.67089 24.5921 9.42451V8.74369C24.5921 8.49731 24.3402 8.29767 24.0293 8.29767C23.7185 8.29767 23.4666 8.49731 23.4666 8.74369V9.42451C23.4666 9.67089 23.7185 9.87053 24.0293 9.87053Z" fill="black"/>
<path d="M30.2169 10.3289C29.997 10.1548 29.6407 10.1548 29.421 10.3289L28.8135 10.8103C28.5937 10.9846 28.5937 11.2669 28.8135 11.4411C29.0335 11.6153 29.3897 11.6153 29.6095 11.4411L30.2169 10.9597C30.4366 10.7855 30.4366 10.5032 30.2169 10.3289Z" fill="black"/>
<path d="M31.3582 14.7869C31.0473 14.7869 30.7954 14.9866 30.7954 15.233C30.7954 15.4793 31.0473 15.679 31.3582 15.679H32.2172C32.5281 15.679 32.78 15.4793 32.78 15.233C32.78 14.9866 32.5281 14.7869 32.2172 14.7869H31.3582Z" fill="black"/>
<path d="M29.6095 19.0247C29.3896 18.8506 29.0333 18.8506 28.8135 19.0247C28.5937 19.199 28.5937 19.4813 28.8135 19.6555L29.421 20.1369C29.6409 20.3111 29.9971 20.311 30.2169 20.1369C30.4367 19.9627 30.4367 19.6803 30.2169 19.5061L29.6095 19.0247Z" fill="black"/>
<path d="M23.4666 21.0414V21.7222C23.4666 21.9685 23.7185 22.1682 24.0293 22.1682C24.3402 22.1682 24.5921 21.9685 24.5921 21.7222V21.0414C24.5921 20.795 24.3402 20.5954 24.0293 20.5954C23.7185 20.5954 23.4666 20.7951 23.4666 21.0414Z" fill="black"/>
<path d="M18.4488 19.0247L17.8414 19.5061C17.6216 19.6804 17.6216 19.9627 17.8414 20.1369C18.0612 20.3111 18.4175 20.311 18.6372 20.1369L19.2446 19.6555C19.4644 19.4813 19.4644 19.1989 19.2446 19.0247C19.0249 18.8506 18.6686 18.8506 18.4488 19.0247Z" fill="black"/>
<path d="M15.8411 14.7869C15.5303 14.7869 15.2783 14.9866 15.2783 15.233C15.2783 15.4793 15.5303 15.679 15.8411 15.679H16.7002C17.011 15.679 17.2629 15.4793 17.2629 15.233C17.2629 14.9866 17.011 14.7869 16.7002 14.7869H15.8411Z" fill="black"/>
<path d="M19.2449 10.8103L18.6375 10.3289C18.4177 10.1548 18.0613 10.1548 17.8416 10.3289C17.6218 10.5032 17.6218 10.7855 17.8416 10.9597L18.449 11.4411C18.6689 11.6153 19.0252 11.6153 19.2449 11.4411C19.4647 11.2669 19.4647 10.9846 19.2449 10.8103Z" fill="black"/>
<path d="M27.0557 15.233C27.0557 14.9866 26.8038 14.7869 26.4929 14.7869H24.5921V11.4754C24.5921 11.229 24.3402 11.0294 24.0293 11.0294C23.7185 11.0294 23.4666 11.229 23.4666 11.4754V15.233C23.4666 15.4793 23.7185 15.679 24.0293 15.679H26.4929C26.8037 15.679 27.0557 15.4793 27.0557 15.233Z" fill="black"/>
<path d="M34.7007 15.1593C35.011 15.1444 35.2472 14.933 35.2284 14.6871C34.8704 10.0067 29.9512 6.34027 24.0293 6.34027C17.8422 6.34027 12.8086 10.3295 12.8086 15.233C12.8086 20.1364 17.8422 24.1257 24.0293 24.1257C29.5723 24.1257 34.302 20.907 35.1248 16.5637C35.171 16.3201 34.9592 16.0929 34.6518 16.0564C34.3452 16.0199 34.0579 16.1876 34.0117 16.4313C33.2726 20.3333 29.0212 23.2337 24.0293 23.2337C18.4628 23.2337 13.9342 19.6446 13.9342 15.2331C13.9342 10.8215 18.4628 7.23238 24.0293 7.23238C29.3571 7.23238 33.7828 10.5306 34.1048 14.7412C34.1236 14.987 34.3901 15.1736 34.7007 15.1593Z" fill="black"/>
<path d="M24.0291 3.78669C22.0495 3.78669 20.11 4.11217 18.3248 4.72085H8.39506C8.08425 4.72085 7.83228 4.92049 7.83228 5.16687C7.83228 5.41326 8.08425 5.6129 8.39506 5.6129H16.2076C15.1512 6.1517 14.1788 6.80158 13.3214 7.55186C13.1128 7.73437 13.1304 8.01644 13.3607 8.18183C13.5912 8.34721 13.9469 8.33324 14.1557 8.15066C16.6771 5.9442 20.2759 4.67874 24.0291 4.67874C31.3723 4.67874 37.3464 9.41333 37.3464 15.233C37.3464 21.0525 31.3723 25.7872 24.0291 25.7872C16.686 25.7872 10.712 21.0526 10.712 15.233C10.712 13.195 11.4465 11.2171 12.8361 9.51276C13.0048 9.30587 12.9299 9.02981 12.6688 8.89612C12.4078 8.76249 12.0594 8.82172 11.8907 9.02868C10.3831 10.8775 9.58638 13.0229 9.58638 15.233C9.58638 19.263 12.2282 22.8129 16.2112 24.853H8.39514C8.08433 24.853 7.83235 25.0526 7.83235 25.299C7.83235 25.5454 8.08433 25.7451 8.39514 25.7451H18.3171C20.07 26.3456 22.0013 26.6792 24.0292 26.6792C31.9929 26.6792 38.472 21.5445 38.472 15.233C38.472 8.92145 31.9929 3.78669 24.0291 3.78669Z" fill="black"/>
</g>
<defs>
<clipPath id="clip0">
<rect width="43.6516" height="30.2056" fill="white" transform="translate(0.0522461 0.251686)"/>
</clipPath>
</defs>
</svg>
