<svg width="44" height="31" viewBox="0 0 44 31" fill="none" xmlns="http://www.w3.org/2000/svg">
<g clip-path="url(#clip0)">
<path d="M16.9299 12.1843C16.5622 11.9058 16.0387 11.7427 15.4936 11.7368C14.3973 11.7271 13.4904 12.3319 13.4718 13.0899C13.4658 13.3343 13.7472 13.5357 14.1003 13.5398C14.104 13.5399 14.1076 13.5399 14.1114 13.5399C14.4595 13.5399 14.7446 13.3467 14.7505 13.1048C14.757 12.8341 15.0786 12.6169 15.4736 12.6216C15.6708 12.6237 15.8526 12.6804 15.9857 12.7811C16.2239 12.9616 16.6285 12.9742 16.8891 12.8094C17.1498 12.6446 17.1682 12.3647 16.9299 12.1843Z" fill="black"/>
<path d="M20.332 13.6263C20.136 13.3075 19.7545 13.0559 19.285 12.936C18.3408 12.695 17.2883 13.0299 16.9385 13.6824C16.8157 13.9116 16.9846 14.1662 17.3156 14.2512C17.389 14.27 17.4641 14.2789 17.5379 14.2789C17.7977 14.2789 18.0418 14.1686 18.1375 13.9902C18.2425 13.7942 18.5591 13.6939 18.8422 13.7662C18.9844 13.8025 19.0956 13.8759 19.155 13.9726C19.2932 14.1974 19.6689 14.3023 19.9937 14.2066C20.3188 14.111 20.4701 13.8512 20.332 13.6263Z" fill="black"/>
<path d="M24.4531 9.70756C24.2031 9.53488 23.7982 9.53523 23.5489 9.70821L22.9461 10.1261C22.6966 10.2991 22.6971 10.5793 22.947 10.7518C23.0718 10.838 23.2352 10.8811 23.3986 10.8811C23.5625 10.8811 23.7264 10.8378 23.8513 10.7512L24.454 10.3333C24.7035 10.1603 24.7031 9.88012 24.4531 9.70756Z" fill="black"/>
<path d="M20.475 15.4197H19.6228C19.2696 15.4197 18.9834 15.6178 18.9834 15.8622C18.9834 16.1065 19.2696 16.3046 19.6228 16.3046H20.475C20.8283 16.3046 21.1145 16.1065 21.1145 15.8622C21.1145 15.6178 20.8283 15.4197 20.475 15.4197Z" fill="black"/>
<path d="M27.0096 15.4197H26.1572C25.804 15.4197 25.5178 15.6178 25.5178 15.8622C25.5178 16.1065 25.8041 16.3046 26.1572 16.3046H27.0096C27.3627 16.3046 27.649 16.1065 27.649 15.8622C27.649 15.6178 27.3627 15.4197 27.0096 15.4197Z" fill="black"/>
<path d="M43.6833 23.3978L43.5168 22.7759C43.4106 22.3785 42.9091 22.09 42.3244 22.09C42.251 22.09 42.177 22.0947 42.1041 22.104L38.7143 22.5349L40.2495 21.8247C40.6518 21.6387 40.8551 21.3058 40.7674 20.9756C40.743 20.8852 40.6973 20.7984 40.6312 20.7172L40.1666 20.1479C40.0074 19.9524 39.736 19.807 39.4226 19.7495C39.2692 19.7211 39.1087 19.7148 38.9522 19.7289C39.1231 19.0761 39.2113 18.4093 39.2113 17.7306C39.2113 17.4294 38.9496 17.1703 38.5757 17.0552C39.0642 16.2512 39.0976 15.3307 38.6147 14.4878C38.5755 14.4193 38.5174 14.3581 38.4421 14.3059C38.3674 14.2543 38.28 14.2143 38.1809 14.1868C37.6023 14.0273 36.9941 13.9465 36.3734 13.9465C36.294 13.9465 36.215 13.9479 36.1362 13.9505C36.0476 12.7155 34.5705 11.7297 32.7673 11.7297C32.5299 11.7297 32.2984 11.7471 32.0747 11.7797C32.2301 11.1367 32.1386 10.4639 31.7767 9.83233C31.7378 9.7629 31.6794 9.7006 31.6 9.64479C31.5236 9.59193 31.434 9.55116 31.3346 9.52385C30.7113 9.35206 30.0562 9.26498 29.3874 9.26498C28.38 9.26498 27.4164 9.46096 26.5845 9.82531C26.2805 9.21607 25.7793 8.64411 25.079 8.15841C24.8739 8.01623 24.601 7.93788 24.3107 7.93788C24.0204 7.93788 23.7476 8.01623 23.5422 8.15853L20.4463 10.3057C19.8734 9.9521 19.1195 9.74072 18.3012 9.74072C18.1155 9.74072 17.928 9.75198 17.7439 9.77417C17.077 9.85452 16.4632 10.0804 15.9927 10.4113C15.3893 10.2098 14.6981 10.1411 14.0339 10.2211C13.8878 10.2386 13.746 10.2634 13.6084 10.2936V8.63904C13.6084 7.49961 12.285 6.57097 10.6479 6.55138V5.61301C11.149 5.55301 11.5316 5.25078 11.5316 4.88713V2.76101C11.5316 2.35441 11.0536 2.02357 10.4659 2.02357H5.26603C4.67836 2.02357 4.20032 2.35441 4.20032 2.76101V4.88713C4.20032 5.25078 4.58295 5.55301 5.08409 5.61301V6.55126C3.44699 6.57079 2.12364 7.49943 2.12364 8.63892V21.5527C0.847008 22.3505 0.0522461 23.4637 0.0522461 24.6947C0.0522461 27.1162 3.12362 29.0863 6.89895 29.0863L32.4919 29.0811C33.3654 29.0808 34.187 28.8152 34.7457 28.3523C35.29 27.9017 35.5213 27.3164 35.3881 26.7392L40.4998 27.3749C40.5705 27.3837 40.643 27.3881 40.7149 27.3881C40.9698 27.3881 41.2141 27.334 41.4209 27.2317C41.6868 27.1003 41.8668 26.8968 41.9148 26.6736L42.0532 26.0307C42.0732 25.9386 42.071 25.8459 42.0467 25.755C41.9587 25.4263 41.597 25.1654 41.1251 25.0906L39.3233 24.8046L42.7098 24.3741C43.0292 24.3336 43.3063 24.2095 43.4901 24.0248C43.6735 23.8405 43.7421 23.6179 43.6833 23.3978ZM36.3734 14.8313C36.7583 14.8313 37.1368 14.8735 37.5006 14.9566C37.8258 15.6418 37.7041 16.3808 37.1949 16.9913H35.4724L36.022 16.61C36.2715 16.4371 36.271 16.1569 36.0209 15.9843C35.7709 15.8117 35.366 15.812 35.1167 15.985L34.8259 16.1867C34.6895 15.8761 34.4515 15.598 34.1386 15.3698C34.7733 15.0211 35.5523 14.8313 36.3734 14.8313ZM32.7673 12.6145C33.9221 12.6145 34.8616 13.2665 34.8616 14.0679C34.8616 14.0828 34.8606 14.0975 34.86 14.1123C34.1859 14.2639 33.5647 14.5173 33.0348 14.8614C32.9505 14.8393 32.865 14.8188 32.7772 14.802C32.5901 14.1028 31.9092 13.5423 31.0096 13.2805C31.383 12.8803 32.0307 12.6145 32.7673 12.6145ZM29.3873 10.1498C29.8216 10.1498 30.2484 10.1984 30.6597 10.2946C30.9903 10.9747 30.9227 11.7052 30.5016 12.338C30.1553 12.5562 29.8744 12.8234 29.6824 13.1238C29.5683 13.1284 29.4541 13.1372 29.3413 13.1507C28.8403 13.2111 28.3731 13.3615 27.9821 13.5797C27.8487 13.411 27.6855 13.2553 27.4984 13.1151L28.9647 12.0982C29.2142 11.9252 29.2137 11.645 28.9636 11.4725C28.7136 11.2998 28.3088 11.3001 28.0593 11.4732L26.4567 12.5847C26.1517 12.4849 25.8221 12.4156 25.4757 12.3831C25.6253 11.8551 25.9956 11.3576 26.5683 10.9603C27.3219 10.4376 28.3231 10.1498 29.3873 10.1498ZM24.4876 16.9913H23.9334C23.84 16.8269 23.6093 16.7104 23.3386 16.7104C23.0679 16.7104 22.8371 16.827 22.7437 16.9913H22.0917C22.2431 16.8207 22.2125 16.5946 21.9988 16.447C21.7488 16.2744 21.3439 16.2747 21.0944 16.4476L20.4918 16.8656C20.4376 16.9031 20.396 16.9458 20.3654 16.9913H19.064C18.5766 16.4737 18.2791 15.8628 18.2439 15.2056H28.3882C28.353 15.8628 28.0556 16.4737 27.5681 16.9913H26.2138C26.1833 16.9458 26.1415 16.903 26.0875 16.8655L25.4849 16.4476C25.2354 16.2747 24.8306 16.2742 24.5807 16.4469C24.3668 16.5945 24.3361 16.8206 24.4876 16.9913ZM23.0005 14.3207C23.2415 13.7026 24.0563 13.2465 25.022 13.2465C25.9877 13.2465 26.8025 13.7026 27.0435 14.3207H23.0005ZM24.3081 8.88009C24.9163 9.33495 25.3185 9.87499 25.5157 10.4426C25.1892 10.6881 24.918 10.9594 24.7041 11.248C24.607 11.2069 24.4932 11.1827 24.371 11.1827H23.519C23.1658 11.1827 22.8795 11.3808 22.8795 11.6252C22.8795 11.8696 23.1658 12.0677 23.519 12.0677H24.2664C24.2244 12.1898 24.1917 12.3135 24.168 12.4381C23.9141 12.4842 23.6717 12.5499 23.4447 12.6336C23.0185 12.1246 22.3128 11.7454 21.4766 11.5932C21.4763 11.592 21.476 11.5907 21.4756 11.5895C21.4255 11.3893 21.338 11.1993 21.2187 11.0227L24.3081 8.88009ZM12.7492 12.8726C12.7117 12.8001 12.6833 12.7256 12.6646 12.6509C12.4812 11.9193 13.194 11.2204 14.2531 11.0928C14.3648 11.0793 14.4783 11.0725 14.5903 11.0725C15.0115 11.0725 15.4141 11.1654 15.7544 11.3413C15.8951 11.4141 16.0732 11.4435 16.2464 11.4228C16.4196 11.402 16.5728 11.3328 16.67 11.2313C16.9702 10.918 17.4295 10.7101 17.9632 10.6458C18.0752 10.6323 18.1889 10.6255 18.3012 10.6255C19.2485 10.6255 20.0537 11.0945 20.2155 11.7408C20.2341 11.8149 20.2437 11.892 20.2438 11.9702C20.2444 12.1992 20.4976 12.3901 20.8273 12.4102C21.5422 12.4537 22.1508 12.765 22.4329 13.2035C22.0552 13.5172 21.7934 13.9002 21.694 14.3207H18.0474C17.594 14.3207 17.2049 14.5144 17.0427 14.7885C16.2404 14.4104 15.2949 14.2066 14.3041 14.2066C13.6833 14.2066 13.0752 14.2875 12.4961 14.447C12.3979 14.4742 12.3101 14.5142 12.2352 14.566C12.1594 14.6185 12.1011 14.6801 12.0629 14.7476C11.9158 15.0044 11.8177 15.2684 11.7646 15.534C11.5355 15.3535 11.374 15.129 11.3109 14.8771C11.1605 14.2768 11.6147 13.679 12.415 13.4235C12.7158 13.3274 12.8608 13.0884 12.7492 12.8726ZM14.6553 16.8703L14.8298 16.9913H13.2941C12.9493 16.4378 12.8969 15.8078 13.1768 15.2169C13.5412 15.1336 13.9195 15.0915 14.3041 15.0915C15.2676 15.0915 16.1739 15.3521 16.8561 15.8252C16.9468 15.8881 17.0313 15.9541 17.1106 16.0222C17.219 16.3617 17.3855 16.686 17.6 16.9912H16.6364L15.5607 16.2452C15.3111 16.0722 14.9063 16.0718 14.6565 16.2445C14.4064 16.4171 14.4059 16.6973 14.6553 16.8703ZM11.9322 16.9913H9.65274C9.75437 16.5627 10.1269 16.1973 10.6441 15.9819C10.9503 16.2657 11.3499 16.4952 11.8102 16.6506C11.8428 16.7654 11.8828 16.8792 11.9322 16.9913ZM5.47917 2.9085H10.2528V4.73964H5.47917V2.9085ZM9.36901 5.62457V6.55038H6.36303V5.62457H9.36901ZM3.40258 10.4333H7.55483C7.90805 10.4333 8.19425 10.2352 8.19425 9.99085C8.19425 9.7465 7.90805 9.54839 7.55483 9.54839H3.40258V8.63892C3.40258 7.97523 4.18046 7.43531 5.13661 7.43531H10.5954C11.5517 7.43531 12.3295 7.97523 12.3295 8.63892V9.54839H11.1356C10.7824 9.54839 10.4962 9.7465 10.4962 9.99085C10.4962 10.2352 10.7824 10.4333 11.1356 10.4333H12.3295V10.826C11.5969 11.3231 11.2164 12.052 11.4043 12.8017C11.4047 12.8032 11.4051 12.8047 11.4054 12.8063C10.3796 13.2933 9.83306 14.1591 10.0507 15.0283C10.0634 15.079 10.0794 15.1289 10.0968 15.1783C9.7773 15.3002 9.49041 15.4576 9.24453 15.6418H3.40258V10.4333ZM3.40249 16.5266H8.50203C8.43417 16.6758 8.38625 16.831 8.36289 16.9913H8.25513C7.6666 16.9913 7.18772 17.3229 7.18772 17.7305C7.18772 18.4331 7.28209 19.1228 7.46497 19.7975C7.28124 19.7873 7.09282 19.7819 6.90117 19.7819C6.12789 19.7819 5.3911 19.8667 4.82679 20.021C3.96356 20.2568 3.72493 20.5917 3.67284 20.8235C3.58136 20.855 3.4915 20.8882 3.40249 20.9223V16.5266ZM11.4994 21.9621C11.7297 22.0896 11.8704 22.198 11.952 22.2762C11.9444 22.2762 11.9363 22.2763 11.9282 22.2763C11.5663 22.2763 10.9161 22.1753 10.1766 21.8921C9.90135 21.7866 9.64771 21.6673 9.44309 21.5474C9.20455 21.4075 8.85474 21.4076 8.61636 21.5475C8.41174 21.6675 8.15819 21.7867 7.88315 21.892C7.14355 22.1753 6.4933 22.2763 6.13147 22.2763C6.1232 22.2763 6.11527 22.2762 6.10751 22.2762C6.18902 22.198 6.32978 22.0896 6.56014 21.962C6.76143 21.8505 6.84626 21.6662 6.77524 21.4947C6.70414 21.3232 6.49117 21.1979 6.23497 21.1771C5.61098 21.1265 5.21641 21.0166 5.03166 20.9366C5.26313 20.8369 5.84833 20.6668 6.90142 20.6668C7.7736 20.6668 8.41106 20.7937 8.71679 20.9125C8.91126 20.988 9.14836 20.988 9.34283 20.9126C9.64873 20.7937 10.2863 20.6668 11.1585 20.6668C12.2116 20.6668 12.7967 20.837 13.0281 20.9367C12.8435 21.0167 12.4488 21.1266 11.8247 21.1772C11.5685 21.198 11.3554 21.3232 11.2844 21.4948C11.2131 21.6664 11.2979 21.8507 11.4994 21.9621ZM10.2203 27.3476L10.2423 27.4296C10.3183 27.7137 10.4787 27.9746 10.7028 28.2013H6.89895C3.82886 28.2013 1.3311 26.6283 1.3311 24.6947C1.3311 23.3732 2.49809 22.2207 4.21652 21.6231C4.41389 21.725 4.65994 21.8129 4.95186 21.8838C4.83608 22.0207 4.75543 22.1678 4.73642 22.3212C4.71118 22.5252 4.80138 22.719 4.99065 22.8668C5.24071 23.0622 5.62453 23.1613 6.13147 23.1613C6.80704 23.1613 7.69346 22.9762 8.50254 22.6662C8.68883 22.5949 8.86497 22.5196 9.02986 22.4409C9.19466 22.5195 9.3708 22.5949 9.55717 22.6663C10.3663 22.9762 11.2527 23.1612 11.9282 23.1613H11.9283C12.4351 23.1613 12.8189 23.0622 13.0689 22.8669C13.2582 22.719 13.3485 22.5253 13.3232 22.3212C13.3042 22.1678 13.2235 22.0207 13.1078 21.8838C13.3997 21.8129 13.6458 21.725 13.8432 21.6231C15.206 22.0971 16.2215 22.9201 16.5836 23.8996L12.0612 25.0884C10.7374 25.4365 9.96316 26.3865 10.2203 27.3476ZM33.7643 27.785C33.449 28.0462 32.9849 28.196 32.4913 28.1961L31.8201 28.1963L31.4009 26.6297C31.3365 26.3894 31.003 26.2305 30.6556 26.2752C30.3085 26.3197 30.079 26.5505 30.1433 26.7908L30.5196 28.1966L28.3195 28.1972L28.036 27.1378C27.9717 26.8975 27.6381 26.7388 27.2908 26.7833C26.9436 26.8278 26.7142 27.0587 26.7785 27.2989L27.0189 28.1976L21.9014 28.1989L21.5162 26.7601C21.4517 26.5199 21.1184 26.3612 20.771 26.4057C20.4237 26.4502 20.1944 26.6811 20.2587 26.9214L20.6008 28.1993L13.1286 28.2013C13.1284 28.2013 13.1282 28.2013 13.1281 28.2013C12.329 28.2013 11.6442 27.809 11.4995 27.2682L11.4775 27.1862C11.333 26.646 11.7693 26.1117 12.5151 25.9156L15.0282 25.255L15.2154 25.9542C15.2724 26.1672 15.5412 26.3161 15.8433 26.3161C15.882 26.3161 15.9212 26.3137 15.9606 26.3087C16.3078 26.2641 16.5371 26.0333 16.4728 25.793L16.2432 24.9356L19.9736 23.955C20.3037 23.8682 20.4697 23.6126 20.3443 23.3842C20.2189 23.1557 19.8491 23.0409 19.5195 23.1277L17.7836 23.584C17.2966 22.391 16.0455 21.3944 14.3865 20.8234C14.3344 20.5917 14.0958 20.2568 13.2327 20.0209C12.6684 19.8667 11.9316 19.7818 11.1583 19.7818C10.6261 19.7818 10.1179 19.8224 9.66928 19.8965V19.6292C9.66928 19.3849 9.38307 19.1868 9.02986 19.1868C8.88057 19.1868 8.74365 19.2224 8.63478 19.2818C8.53392 18.8202 8.47748 18.3515 8.4681 17.8761H29.2953C29.6485 17.8761 29.9347 17.678 29.9347 17.4336C29.9347 17.1893 29.6485 16.9912 29.2953 16.9912H29.0336C29.4408 16.4109 29.6708 15.7603 29.6708 15.0727C29.6708 14.6823 29.2392 14.3607 28.6891 14.3242C28.9286 14.1679 29.2275 14.0626 29.5607 14.0224C29.6583 14.0107 29.7574 14.0047 29.8552 14.0047C30.6808 14.0047 31.3823 14.4134 31.5232 14.9763C31.5395 15.0415 31.5478 15.1087 31.5479 15.1763C31.5483 15.4054 31.8016 15.5964 32.1314 15.6165C32.8956 15.6629 33.5208 16.0606 33.6518 16.5836C33.6866 16.7226 33.6822 16.8598 33.6474 16.9912H32.9613C32.6081 16.9912 32.3219 17.1893 32.3219 17.4336C32.3219 17.678 32.6081 17.8761 32.9613 17.8761H37.9311C37.9152 18.6877 37.7642 19.4806 37.4824 20.2498L34.017 21.6653C33.8051 21.1549 33.3125 20.7219 32.6338 20.4591C31.8725 20.1643 30.9678 20.1182 30.1519 20.3326L23.015 22.2088C22.6848 22.2956 22.5189 22.5511 22.6443 22.7796C22.7697 23.0081 23.1394 23.1227 23.4691 23.0361L24.4093 22.789L24.7012 23.8796C24.7583 24.0926 25.027 24.2416 25.3292 24.2416C25.3678 24.2416 25.4071 24.2391 25.4464 24.2341C25.7936 24.1896 26.023 23.9588 25.9588 23.7185L25.6245 22.4696L30.6059 21.16C31.0675 21.0387 31.5789 21.0648 32.0092 21.2314C32.4387 21.3977 32.7362 21.6844 32.8256 22.0179L34.1192 26.8505C34.2084 27.1837 34.079 27.5243 33.7643 27.785ZM36.0457 24.3216C35.7474 24.3595 35.5287 24.5372 35.522 24.7471C35.5153 24.9569 35.7227 25.1411 36.0183 25.188L40.779 25.9436L40.6601 26.4957L35.1411 25.8094L34.2784 22.5863L39.0855 20.6227L39.4859 21.1134L35.4313 22.9889C35.1792 23.1055 35.0801 23.3286 35.1942 23.5231C35.3082 23.7175 35.604 23.8299 35.9022 23.7919L42.2714 22.9823L42.4133 23.5121L36.0457 24.3216Z" fill="black"/>
</g>
<defs>
<clipPath id="clip0">
<rect width="43.6516" height="30.2056" fill="white" transform="translate(0.0522461 0.452118)"/>
</clipPath>
</defs>
</svg>
